<svg width="141" height="47" viewBox="0 0 141 47" fill="none" xmlns="http://www.w3.org/2000/svg">
<g id="Frame 98">
<path id="Vector" d="M60.2969 25.0612C60.2969 31.7152 55.0915 36.6185 48.7032 36.6185C42.3149 36.6185 37.1094 31.7152 37.1094 25.0612C37.1094 18.3603 42.3149 13.5039 48.7032 13.5039C55.0915 13.5039 60.2969 18.3603 60.2969 25.0612ZM55.2217 25.0612C55.2217 20.9031 52.2047 18.058 48.7032 18.058C45.2016 18.058 42.1846 20.9031 42.1846 25.0612C42.1846 29.1776 45.2016 32.0644 48.7032 32.0644C52.2047 32.0644 55.2217 29.1724 55.2217 25.0612Z" fill="#EA4335"/>
<path id="Vector_2" d="M85.3086 25.0612C85.3086 31.7152 80.1032 36.6185 73.7149 36.6185C67.3266 36.6185 62.1211 31.7152 62.1211 25.0612C62.1211 18.3655 67.3266 13.5039 73.7149 13.5039C80.1032 13.5039 85.3086 18.3603 85.3086 25.0612ZM80.2334 25.0612C80.2334 20.9031 77.2165 18.058 73.7149 18.058C70.2133 18.058 67.1963 20.9031 67.1963 25.0612C67.1963 29.1776 70.2133 32.0644 73.7149 32.0644C77.2165 32.0644 80.2334 29.1724 80.2334 25.0612Z" fill="#FBBC05"/>
<path id="Vector_3" d="M109.278 14.2021V34.9511C109.278 43.4862 104.244 46.9721 98.2938 46.9721C92.6923 46.9721 89.321 43.2257 88.0496 40.1618L92.4682 38.3224C93.2551 40.2035 95.183 42.4232 98.2886 42.4232C102.098 42.4232 104.458 40.0732 104.458 35.6493V33.9871H104.281C103.145 35.3888 100.956 36.6133 98.1948 36.6133C92.4161 36.6133 87.1221 31.5798 87.1221 25.1029C87.1221 18.5791 92.4161 13.5039 98.1948 13.5039C100.951 13.5039 103.14 14.7284 104.281 16.0884H104.458V14.2073H109.278V14.2021ZM104.818 25.1029C104.818 21.0333 102.103 18.058 98.6481 18.058C95.1465 18.058 92.2129 21.0333 92.2129 25.1029C92.2129 29.1308 95.1465 32.0644 98.6481 32.0644C102.103 32.0644 104.818 29.1308 104.818 25.1029Z" fill="#4285F4"/>
<path id="Vector_4" d="M117.224 2.04102V35.9105H112.273V2.04102H117.224Z" fill="#34A853"/>
<path id="Vector_5" d="M136.514 28.8663L140.454 31.4925C139.182 33.3735 136.118 36.6146 130.824 36.6146C124.259 36.6146 119.355 31.5394 119.355 25.0573C119.355 18.1844 124.3 13.5 130.256 13.5C136.254 13.5 139.187 18.273 140.146 20.8523L140.672 22.1654L125.223 28.5641C126.406 30.8828 128.245 32.0657 130.824 32.0657C133.409 32.0657 135.201 30.7943 136.514 28.8663ZM124.389 24.7082L134.717 20.4198C134.149 18.9764 132.439 17.9708 130.428 17.9708C127.849 17.9708 124.259 20.2478 124.389 24.7082Z" fill="#EA4335"/>
<path id="Vector_6" d="M18.3718 22.0552V17.1519H34.8949C35.0564 18.0065 35.1398 19.0174 35.1398 20.1116C35.1398 23.7904 34.1341 28.3393 30.8931 31.5803C27.7406 34.8631 23.7128 36.6138 18.377 36.6138C8.48715 36.6138 0.170898 28.5581 0.170898 18.6683C0.170898 8.77837 8.48715 0.722656 18.377 0.722656C23.8482 0.722656 27.7458 2.86946 30.6742 5.6676L27.2143 9.12749C25.1144 7.15785 22.2694 5.62591 18.3718 5.62591C11.1498 5.62591 5.50143 11.4462 5.50143 18.6683C5.50143 25.8903 11.1498 31.7106 18.3718 31.7106C23.0562 31.7106 25.7241 29.8295 27.4332 28.1204C28.8192 26.7344 29.7311 24.7543 30.0906 22.05L18.3718 22.0552Z" fill="#4285F4"/>
</g>
</svg>
