<svg width="143" height="40" viewBox="0 0 143 40" fill="none" xmlns="http://www.w3.org/2000/svg">
<g id="Frame 101">
<path id="Vector" d="M39.113 26.8551C35.1337 26.8551 32.4994 23.8407 31.7646 22.6731C32.7075 15.2866 35.4666 12.9511 39.113 12.9511C42.718 12.9511 45.5187 15.7754 45.5187 19.903C45.5187 24.0308 42.718 26.8551 39.113 26.8551ZM39.113 8.41602C32.6243 8.41602 28.9917 12.5574 27.9518 16.8209C26.7732 14.6484 25.8998 11.7427 25.2204 9.04061H16.2497V19.971C16.2497 23.9359 14.4057 26.8687 10.8008 26.8687C7.19591 26.8687 5.13004 23.9359 5.13004 19.971L5.17163 9.04061H0V19.971C0 23.1619 1.05374 26.0541 2.98097 28.1179C4.96366 30.2496 7.66732 31.363 10.8008 31.363C17.04 31.363 21.3937 26.6786 21.3937 19.971V12.6252C22.0452 15.0421 23.5982 19.6859 26.5652 23.7594L23.7923 39.2248H29.0472L30.8772 28.2672C31.4734 28.756 32.1112 29.1905 32.7906 29.5844C34.5514 30.6706 36.5618 31.2816 38.6417 31.3494C38.6417 31.3494 38.9605 31.363 39.1269 31.363C45.5603 31.363 50.6764 26.4886 50.6764 19.903C50.6764 13.3177 45.5464 8.41602 39.113 8.41602Z" fill="#14A800"/>
<path id="Vector_2" d="M113.415 11.377V9.04162H108.341V30.6715H113.485V22.1988C113.485 16.9848 113.97 13.2373 121.11 13.7261V8.78363C117.783 8.53922 115.19 9.21812 113.415 11.377Z" fill="#14A800"/>
<path id="Vector_3" d="M77.7008 9.04102L73.9711 24.1671L69.9918 9.04102H63.4476L59.4545 24.1671L55.7387 9.04102H50.5254L56.2378 30.6846H62.4216L66.7197 15.3141L70.9762 30.6846H77.16L83.2052 9.04102H77.7008Z" fill="#14A800"/>
<path id="Vector_4" d="M94.5328 26.8687C90.8725 26.8687 88.1273 24.0445 88.1273 19.903C88.1273 15.7618 90.8865 12.9511 94.5328 12.9511C98.1378 12.9511 100.939 15.7754 100.939 19.903C100.939 24.0308 98.1378 26.8687 94.5328 26.8687ZM94.5328 8.41602C88.0579 8.41602 82.9834 13.3313 82.9834 19.903C82.9834 26.4749 88.0579 31.3494 94.5328 31.3494C100.966 31.3494 106.082 26.4749 106.082 19.903C106.082 13.3313 100.98 8.41602 94.5328 8.41602Z" fill="#14A800"/>
<path id="Vector_5" d="M128.488 20.039H129.68L136.862 30.6841H142.672L134.408 18.8848C138.415 17.3505 141.105 13.3449 141.105 9.04064H135.975C135.975 13.7115 132.218 15.4767 128.488 15.4767V0.5H123.33V30.6841H128.474L128.488 20.039Z" fill="#14A800"/>
</g>
</svg>
