<svg width="194" height="48" viewBox="0 0 194 48" fill="none" xmlns="http://www.w3.org/2000/svg">
<g id="Frame 100">
<path id="Vector" d="M50.8535 17.082H70.4275V20.726H62.7205V41.2674H58.4961V20.726H50.8213L50.8535 17.082ZM69.5891 23.7572H73.2008V27.1431H73.2653C73.3943 26.6594 73.62 26.208 73.9425 25.7565C74.265 25.305 74.6519 24.8858 75.1356 24.5311C75.5871 24.1441 76.103 23.8539 76.6835 23.6282C77.2317 23.4025 77.8121 23.2735 78.3926 23.2735C78.8441 23.2735 79.1665 23.3057 79.3278 23.3057C79.489 23.338 79.6825 23.3702 79.8437 23.3702V27.0786C79.5857 27.0141 79.2955 26.9819 79.0053 26.9496C78.7151 26.9174 78.4571 26.8852 78.1669 26.8852C77.5219 26.8852 76.9092 27.0141 76.3288 27.2721C75.7483 27.5301 75.2646 27.9171 74.8132 28.4008C74.3939 28.9167 74.0392 29.5294 73.7813 30.2711C73.5233 31.0128 73.3943 31.8835 73.3943 32.8509V41.1706H69.5246L69.5891 23.7572ZM97.5796 41.2674H93.7745V38.8166H93.71C93.2263 39.7195 92.5168 40.3967 91.5817 40.9449C90.6465 41.4931 89.6791 41.7511 88.7117 41.7511C86.4221 41.7511 84.7453 41.2029 83.7134 40.042C82.6815 38.9133 82.1655 37.172 82.1655 34.8824V23.7572H86.0352V34.4955C86.0352 36.0433 86.3254 37.1397 86.9381 37.7524C87.5185 38.3974 88.357 38.7198 89.4211 38.7198C90.2273 38.7198 90.9045 38.5909 91.4527 38.3329C92.0009 38.0749 92.4524 37.7524 92.7748 37.3332C93.1295 36.914 93.3553 36.398 93.5165 35.8176C93.6777 35.2372 93.7422 34.5922 93.7422 33.915V23.7572H97.6119V41.2674H97.5796ZM104.158 35.6564C104.287 36.785 104.706 37.559 105.448 38.0427C106.19 38.4941 107.093 38.7198 108.124 38.7198C108.479 38.7198 108.898 38.6876 109.35 38.6231C109.801 38.5586 110.253 38.4619 110.64 38.3006C111.059 38.1394 111.381 37.9137 111.639 37.5912C111.897 37.2687 112.026 36.8818 111.994 36.3981C111.962 35.9143 111.801 35.4951 111.446 35.1727C111.091 34.8502 110.672 34.6245 110.156 34.3987C109.64 34.2052 109.027 34.044 108.35 33.915C107.673 33.786 106.996 33.6248 106.286 33.4636C105.577 33.3023 104.868 33.1089 104.19 32.8831C103.513 32.6574 102.933 32.3672 102.384 31.9479C101.869 31.561 101.417 31.0773 101.127 30.4646C100.804 29.8519 100.643 29.1424 100.643 28.2395C100.643 27.2721 100.869 26.4982 101.353 25.8532C101.804 25.2083 102.417 24.6923 103.126 24.3054C103.836 23.9184 104.642 23.6282 105.512 23.467C106.383 23.3057 107.222 23.2412 107.995 23.2412C108.898 23.2412 109.769 23.338 110.575 23.5315C111.381 23.7249 112.155 24.0152 112.8 24.4666C113.477 24.8858 114.026 25.4663 114.445 26.1435C114.896 26.8207 115.154 27.6591 115.283 28.6265H111.252C111.059 27.6913 110.64 27.0786 109.995 26.7562C109.318 26.4337 108.576 26.2725 107.705 26.2725C107.447 26.2725 107.093 26.3047 106.738 26.3369C106.351 26.4014 106.028 26.4659 105.674 26.5949C105.351 26.7239 105.061 26.9174 104.835 27.1431C104.61 27.3689 104.481 27.6913 104.481 28.0783C104.481 28.562 104.642 28.9167 104.964 29.2069C105.287 29.4972 105.706 29.7229 106.254 29.9486C106.77 30.1421 107.383 30.3033 108.06 30.4323C108.737 30.5613 109.447 30.7226 110.156 30.8838C110.865 31.045 111.543 31.2385 112.22 31.4642C112.897 31.69 113.51 31.9802 114.026 32.3994C114.542 32.7864 114.993 33.2701 115.316 33.8505C115.638 34.431 115.799 35.1727 115.799 36.0111C115.799 37.043 115.574 37.9137 115.09 38.6554C114.606 39.3648 113.993 39.9775 113.252 40.4289C112.51 40.8804 111.639 41.2029 110.736 41.4286C109.801 41.6221 108.898 41.7511 107.995 41.7511C106.899 41.7511 105.867 41.6221 104.932 41.3641C103.997 41.1061 103.158 40.7192 102.481 40.2355C101.804 39.7195 101.256 39.1068 100.869 38.3329C100.482 37.5912 100.256 36.6883 100.224 35.6241H104.126V35.6564H104.158ZM116.896 23.7572H119.83V18.4687H123.7V23.7249H127.183V26.5949H123.7V35.9466C123.7 36.3658 123.732 36.6883 123.764 37.0107C123.797 37.301 123.893 37.5589 123.99 37.7524C124.119 37.9459 124.313 38.1072 124.538 38.2039C124.796 38.3006 125.119 38.3651 125.57 38.3651C125.828 38.3651 126.118 38.3651 126.376 38.3329C126.634 38.3006 126.925 38.2684 127.183 38.2039V41.2029C126.763 41.2674 126.344 41.2996 125.925 41.3319C125.506 41.3964 125.119 41.3964 124.667 41.3964C123.635 41.3964 122.829 41.2996 122.216 41.1061C121.604 40.9127 121.12 40.6224 120.765 40.2677C120.411 39.8807 120.185 39.4293 120.056 38.8811C119.927 38.3329 119.862 37.6557 119.83 36.9462V26.6272H116.896V23.6927V23.7572ZM129.891 23.7572H133.535V26.1435H133.6C134.148 25.1116 134.89 24.4021 135.857 23.9507C136.824 23.4992 137.856 23.2735 139.017 23.2735C140.404 23.2735 141.597 23.4992 142.629 24.0152C143.661 24.4989 144.499 25.1438 145.176 26.0145C145.854 26.8529 146.37 27.8526 146.692 28.9812C147.015 30.1099 147.208 31.3353 147.208 32.5929C147.208 33.786 147.047 34.9147 146.757 36.0111C146.434 37.1075 145.983 38.1071 145.37 38.9456C144.757 39.784 143.983 40.4612 143.016 40.9771C142.048 41.4931 140.952 41.7511 139.662 41.7511C139.114 41.7511 138.534 41.6866 137.985 41.5898C137.437 41.4931 136.889 41.3319 136.373 41.1061C135.857 40.8804 135.373 40.5902 134.954 40.2355C134.503 39.8807 134.148 39.4615 133.858 39.0101H133.793V47.749H129.924V23.7572H129.891ZM143.403 32.5284C143.403 31.7545 143.306 30.9805 143.08 30.2389C142.887 29.4972 142.564 28.8522 142.145 28.2718C141.726 27.6913 141.21 27.2399 140.63 26.8852C140.017 26.5304 139.307 26.3692 138.534 26.3692C136.921 26.3692 135.696 26.9174 134.857 28.0461C134.051 29.1747 133.632 30.6903 133.632 32.5606C133.632 33.4636 133.729 34.2697 133.954 35.0114C134.18 35.7531 134.47 36.398 134.922 36.9462C135.341 37.4944 135.857 37.9137 136.47 38.2361C137.082 38.5586 137.76 38.7198 138.566 38.7198C139.469 38.7198 140.178 38.5264 140.791 38.1716C141.404 37.8169 141.887 37.3332 142.306 36.785C142.693 36.2046 142.984 35.5596 143.145 34.8179C143.306 34.044 143.403 33.3023 143.403 32.5284ZM150.207 17.082H154.077V20.726H150.207V17.082ZM150.207 23.7572H154.077V41.2674H150.207V23.7572ZM157.527 17.082H161.397V41.2674H157.527V17.082ZM173.199 41.7511C171.813 41.7511 170.555 41.5253 169.459 41.0416C168.362 40.5579 167.459 39.9452 166.685 39.1391C165.944 38.3329 165.363 37.3332 164.976 36.2046C164.589 35.0759 164.363 33.8183 164.363 32.4962C164.363 31.174 164.557 29.9486 164.976 28.82C165.363 27.6913 165.944 26.7239 166.685 25.8855C167.427 25.0793 168.362 24.4344 169.459 23.9829C170.555 23.5315 171.813 23.2735 173.199 23.2735C174.586 23.2735 175.843 23.4992 176.94 23.9829C178.036 24.4344 178.939 25.0793 179.713 25.8855C180.455 26.6917 181.035 27.6913 181.422 28.82C181.809 29.9486 182.035 31.174 182.035 32.4962C182.035 33.8505 181.841 35.0759 181.422 36.2046C181.003 37.3332 180.455 38.3006 179.713 39.1391C178.971 39.9452 178.036 40.5902 176.94 41.0416C175.843 41.4931 174.618 41.7511 173.199 41.7511ZM173.199 38.6876C174.038 38.6876 174.812 38.4941 175.424 38.1394C176.069 37.7847 176.553 37.301 176.972 36.7205C177.391 36.1401 177.682 35.4629 177.875 34.7534C178.069 34.0118 178.165 33.2701 178.165 32.4962C178.165 31.7545 178.069 31.0128 177.875 30.2711C177.682 29.5294 177.391 28.8845 176.972 28.304C176.553 27.7236 176.037 27.2721 175.424 26.9174C174.779 26.5627 174.038 26.3692 173.199 26.3692C172.361 26.3692 171.587 26.5627 170.974 26.9174C170.329 27.2721 169.846 27.7558 169.426 28.304C169.007 28.8845 168.717 29.5294 168.523 30.2711C168.33 31.0128 168.233 31.7545 168.233 32.4962C168.233 33.2701 168.33 34.0118 168.523 34.7534C168.717 35.4951 169.007 36.1401 169.426 36.7205C169.846 37.301 170.361 37.7847 170.974 38.1394C171.619 38.5264 172.361 38.6876 173.199 38.6876ZM183.196 23.7572H186.13V18.4687H190V23.7249H193.483V26.5949H190V35.9466C190 36.3658 190.032 36.6883 190.064 37.0107C190.097 37.301 190.193 37.5589 190.29 37.7524C190.419 37.9459 190.613 38.1072 190.838 38.2039C191.096 38.3006 191.419 38.3651 191.87 38.3651C192.128 38.3651 192.419 38.3651 192.676 38.3329C192.934 38.3006 193.225 38.2684 193.483 38.2039V41.2029C193.063 41.2674 192.644 41.2996 192.225 41.3319C191.806 41.3964 191.419 41.3964 190.967 41.3964C189.935 41.3964 189.129 41.2996 188.517 41.1061C187.904 40.9127 187.42 40.6224 187.065 40.2677C186.711 39.8807 186.485 39.4293 186.356 38.8811C186.227 38.3329 186.163 37.6557 186.13 36.9462V26.6272H183.196V23.6927V23.7572Z" fill="black"/>
<path id="Vector_2" d="M46.3391 17.083H28.6354L23.1857 0.25L17.7037 17.083L0 17.0508L14.3177 27.4666L8.83571 44.2996L23.1534 33.8837L37.4712 44.2996L32.0214 27.4666L46.3391 17.083Z" fill="#00B67A"/>
<path id="Vector_3" d="M33.2472 31.272L32.0218 27.4668L23.186 33.884L33.2472 31.272Z" fill="#005128"/>
</g>
</svg>
