<svg width="156" height="45" viewBox="0 0 156 45" fill="none" xmlns="http://www.w3.org/2000/svg">
<g id="Frame 99">
<g id="Group">
<path id="Vector" d="M41.1704 0H48.2821V44.069H41.1704V0Z" fill="#17313B"/>
<path id="Vector_2" d="M73.0183 30.103C73.0183 36.9306 67.4527 37.5513 65.5975 37.5513C61.2686 37.5513 60.6502 33.5168 60.6502 31.3444V14.2754H53.5386V31.034C53.5386 35.0685 54.7754 38.7926 57.249 40.965C59.4134 43.1375 62.1962 44.0685 65.5975 44.0685C68.0711 44.0685 71.1631 43.4478 73.0183 41.5857V44.0685H80.13V14.2754H73.0183V30.103Z" fill="#17313B"/>
<path id="Vector_3" d="M94.0439 3.41406H86.9322V14.2761H81.6758V21.1037H86.9322V44.0692H94.0439V21.1037H99.3003V14.2761H94.0439V3.41406Z" fill="#17313B"/>
<path id="Vector_4" d="M121.563 35.0681C120.017 36.3095 117.852 37.2405 115.688 37.2405C110.741 37.2405 107.34 33.5164 107.34 28.5508C107.34 23.5853 110.741 20.1715 115.688 20.1715C117.852 20.1715 120.017 20.7922 121.563 22.3439L122.49 23.275L127.438 18.6198L126.201 17.6888C123.418 15.206 119.708 13.6543 115.688 13.6543C107.03 13.6543 100.537 20.1715 100.537 28.8612C100.537 37.5508 107.03 44.0681 115.688 44.0681C119.708 44.0681 123.418 42.5164 126.201 40.0336L127.438 39.1026L122.49 34.1371L121.563 35.0681Z" fill="#17313B"/>
<path id="Vector_5" d="M152.484 16.7586C150.319 14.5862 148.155 13.6552 144.753 13.6552C142.28 13.6552 139.806 14.2759 137.951 16.1379V0H130.839V44.069H137.951V27.6207C137.951 20.7931 142.589 20.1724 144.444 20.1724C148.773 20.1724 148.464 24.2069 148.464 26.3793V43.7586H155.576V26.6897C155.576 22.6552 154.648 18.931 152.484 16.7586Z" fill="#17313B"/>
<path id="Vector_6" d="M115.379 33.8275C118.111 33.8275 120.326 31.6044 120.326 28.862C120.326 26.1196 118.111 23.8965 115.379 23.8965C112.647 23.8965 110.432 26.1196 110.432 28.862C110.432 31.6044 112.647 33.8275 115.379 33.8275Z" fill="#EF4335"/>
<path id="Vector_7" d="M31.276 33.2076C28.8023 35.6904 25.0919 37.2421 21.0723 37.2421C13.3422 37.2421 7.77658 31.0352 7.77658 22.6559C7.77658 14.2766 13.3422 8.0697 21.3815 8.0697C25.0919 8.0697 28.8023 9.62142 31.5852 12.4145L32.5128 13.3456L37.1508 8.69039L36.2232 7.75936C32.2036 3.72487 26.9471 1.55246 21.3815 1.55246C9.63179 1.24211 0.974121 10.5525 0.974121 22.6559C0.974121 34.7594 9.63179 44.0697 21.0723 44.0697C26.6379 44.0697 32.2036 41.8973 35.914 37.8628L36.8416 36.9318L32.2036 32.2766L31.276 33.2076Z" fill="#17313B"/>
</g>
</g>
</svg>
