<svg width="211" height="46" viewBox="0 0 211 46" fill="none" xmlns="http://www.w3.org/2000/svg">
<path d="M18.7388 8.5957C27.7375 8.5957 36.5392 13.8974 36.5392 25.7205C36.5392 26.6589 36.4923 28.1133 36.3891 29.1361C36.361 29.3707 36.1639 29.549 35.9293 29.549H10.6878C11.4291 33.7809 14.3849 36.5303 19.0203 36.5303C22.0981 36.5303 24.0592 34.8319 25.1196 32.8051C25.2509 32.5517 25.5418 32.4203 25.8233 32.4766L35.2631 34.5316C35.554 34.5973 35.7041 34.907 35.5821 35.1791C33.377 40.1805 28.3569 45.1349 18.9452 45.1349C6.5872 45.1349 0 37.0745 0 26.8653C0 16.6561 6.84993 8.5957 18.7388 8.5957ZM25.9922 23.1026C25.5231 19.077 22.8394 16.9188 18.9359 16.9188C13.8312 16.9188 11.6824 19.5368 10.8754 23.1026H25.9922Z" fill="#191919"/>
<path d="M39.7671 43.5961V10.1346C39.7671 9.88124 39.9735 9.6748 40.2269 9.6748H50.0514C50.3047 9.6748 50.5112 9.88124 50.5112 10.1346V14.1038C52.8664 10.4067 56.3571 8.5957 60.8518 8.5957C67.4296 8.5957 73.0784 13.0998 73.0784 23.1682V43.5961C73.0784 43.8494 72.872 44.0559 72.6186 44.0559H62.7941C62.5408 44.0559 62.3343 43.8494 62.3343 43.5961V24.7165C62.3343 20.2124 59.9791 17.7352 56.5541 17.7352C52.857 17.7352 50.5112 20.1561 50.5112 25.6642V43.6054C50.5112 43.8588 50.3047 44.0652 50.0514 44.0652H40.2269C39.9735 44.0652 39.7671 43.8588 39.7671 43.6054V43.5961Z" fill="#191919"/>
<path d="M73.7352 9.66504H84.1508C84.3573 9.66504 84.5356 9.79641 84.5919 9.99346L92.4177 35.9294L100.243 9.99346C100.3 9.79641 100.478 9.66504 100.685 9.66504H111.1C111.419 9.66504 111.644 9.98408 111.532 10.2843L99.5491 43.6238C99.4553 43.8772 99.2113 44.0555 98.9392 44.0555H85.8774C85.6053 44.0555 85.3613 43.8866 85.2675 43.6238L73.2848 10.2843C73.1722 9.98408 73.3974 9.66504 73.7164 9.66504H73.7352Z" fill="#191919"/>
<path d="M134.334 43.5955V38.3501C132.654 41.8408 128.891 45.1344 123.045 45.1344C116.261 45.1344 111.222 40.8367 111.222 34.7938C111.222 28.413 115.454 23.6462 124.725 23.6462H130.102C133.058 23.6462 133.865 21.4974 133.592 20.0899C133.189 17.6689 131.04 16.3928 128.019 16.3928C124.2 16.3928 121.891 18.5041 121.6 21.4036C121.572 21.6663 121.328 21.854 121.065 21.8164L111.954 20.2963C111.701 20.2588 111.522 20.0148 111.569 19.7614C113.052 11.8324 120.568 8.60449 128.281 8.60449C135.995 8.60449 144.534 10.4812 144.534 24.7253V43.6049C144.534 43.8582 144.327 44.0646 144.074 44.0646H134.784C134.531 44.0646 134.324 43.8582 134.324 43.6049L134.334 43.5955ZM126.208 37.3461C130.505 37.3461 133.461 34.1182 133.799 30.0926H127.287C123.327 30.0926 121.91 31.7066 121.985 33.9211C122.051 36.2764 123.937 37.3461 126.217 37.3461H126.208Z" fill="#191919"/>
<path d="M146.157 17.8004V10.1248C146.157 9.87141 146.364 9.66498 146.617 9.66498H150.455C152.238 9.66498 153.683 8.21992 153.683 6.43706V0.45979C153.683 0.206436 153.889 0 154.143 0H162.888C163.141 0 163.348 0.206436 163.348 0.45979V9.66498H170.404C170.657 9.66498 170.864 9.87141 170.864 10.1248V17.8004C170.864 18.0538 170.657 18.2602 170.404 18.2602H163.348V30.684C163.348 34.7282 166.791 36.3797 170.385 35.1036C170.62 35.0191 170.873 35.1974 170.873 35.4508V43.5487C170.873 43.849 170.676 44.1117 170.385 44.1774C169.456 44.3932 168.171 44.5903 166.641 44.5903C158.309 44.5903 152.604 41.7658 152.604 29.6799V18.2602H146.617C146.364 18.2602 146.157 18.0538 146.157 17.8004Z" fill="#191919"/>
<path d="M210.106 26.8653C210.106 36.9432 202.983 45.1349 191.301 45.1349C179.619 45.1349 172.497 36.9432 172.497 26.8653C172.497 16.7875 179.619 8.5957 191.301 8.5957C202.983 8.5957 210.106 16.7875 210.106 26.8653ZM199.352 26.8653C199.352 21.8921 196.603 17.7352 191.292 17.7352C185.981 17.7352 183.231 21.9015 183.231 26.8653C183.231 31.8292 185.981 35.9954 191.292 35.9954C196.603 35.9954 199.352 31.8292 199.352 26.8653Z" fill="#191919"/>
</svg>
