<svg width="173" height="61" viewBox="0 0 173 61" fill="none" xmlns="http://www.w3.org/2000/svg">
<path d="M165.82 55.9223C166.762 55.9233 167.695 55.7387 168.566 55.3791C169.436 55.0195 170.228 54.492 170.894 53.8267C171.561 53.1614 172.09 52.3712 172.451 51.5014C172.813 50.6316 172.999 49.6991 173 48.7572C173.001 47.8153 172.816 46.8825 172.457 46.012C172.097 45.1414 171.57 44.3502 170.904 43.6835C170.239 43.0169 169.449 42.4878 168.579 42.1264C167.709 41.7651 166.777 41.5787 165.835 41.5777C163.933 41.5758 162.108 42.3296 160.761 43.6733C159.415 45.0171 158.657 46.8406 158.655 48.7428C158.654 50.645 159.407 52.4701 160.751 53.8165C162.095 55.1629 163.918 55.9204 165.82 55.9223ZM158.641 29.2154H152.514C148.578 29.2154 146.459 32.1709 146.459 37.0869V54.8627H134.854V29.2154H129.923C125.98 29.2154 123.868 32.1709 123.868 37.0869V54.8627H112.263V19.7293H123.868V25.0634C125.771 20.9259 128.38 19.7293 132.251 19.7293H146.466V25.0634C148.369 20.9259 150.971 19.7293 154.842 19.7293H158.641V29.2154ZM109.725 40.0351H85.5125C86.1468 43.9709 88.612 46.2199 92.764 46.2199C95.8636 46.2199 98.0405 44.9584 98.747 42.7094L109.019 45.5928C106.489 51.7054 100.225 55.4249 92.764 55.4249C80.1639 55.4249 74.39 45.6576 74.39 37.296C74.39 29.0785 79.4575 19.2391 92.0504 19.2391C105.429 19.2391 109.862 29.2154 109.862 36.5968C109.862 38.2114 109.79 39.2639 109.718 40.0351H109.725ZM98.4658 33.2233C98.1775 30.1958 96.0006 27.3845 92.0576 27.3845C88.3958 27.3845 86.2189 29.0064 85.5125 33.2233H98.4658ZM54.1202 54.8555H64.3272L77.0643 19.7221H65.3868L59.1876 40.1721L52.8587 19.7221H41.2317L54.1202 54.8555ZM6.54517 54.8555H18.0929V29.2082H29.0784V54.8555H40.5469V19.7221H18.0929V17.5451C18.0929 15.152 19.7869 13.6815 22.4612 13.6815H29.0784V4.19531H20.5437C12.1677 4.19531 6.53796 9.32765 6.53796 16.8459V19.7293H0V29.2154H6.54517V54.8627V54.8555Z" fill="#013912"/>
<path d="M165.82 55.9227C166.762 55.9237 167.695 55.7391 168.566 55.3795C169.436 55.0199 170.227 54.4924 170.894 53.8271C171.561 53.1618 172.09 52.3716 172.451 51.5018C172.812 50.632 172.999 49.6995 173 48.7576C173.001 47.8158 172.816 46.8829 172.457 46.0124C172.097 45.1418 171.57 44.3506 170.904 43.6839C170.239 43.0173 169.449 42.4882 168.579 42.1269C167.709 41.7655 166.777 41.5791 165.835 41.5781C163.933 41.5762 162.108 42.33 160.761 43.6738C159.415 45.0175 158.657 46.841 158.655 48.7432C158.653 50.6454 159.407 52.4705 160.751 53.8169C162.095 55.1633 163.918 55.9208 165.82 55.9227Z" fill="#1DBF73"/>
</svg>
