<svg width="168" height="61" viewBox="0 0 168 61" fill="none" xmlns="http://www.w3.org/2000/svg">
<path d="M45.9726 36.6348C43.2423 36.6348 40.6842 35.4787 38.3597 33.597L38.9254 30.9405L38.95 30.8421C39.4543 28.0134 41.0531 23.2661 45.9726 23.2661C49.6622 23.2661 52.6631 26.267 52.6631 29.9566C52.6508 33.6339 49.6499 36.6348 45.9726 36.6348ZM45.9726 16.4896C39.688 16.4896 34.8177 20.5727 32.8376 27.2878C29.8121 22.7496 27.5246 17.3013 26.184 12.7139H19.4197V30.3133C19.4197 33.7815 16.591 36.6102 13.1228 36.6102C9.65457 36.6102 6.82588 33.7815 6.82588 30.3133V12.7139H0.0616005V30.3133C0.0370031 37.5203 5.90347 43.436 13.1105 43.436C20.3175 43.436 26.184 37.5203 26.184 30.3133V27.3616C27.5 30.1042 29.1111 32.8714 31.0666 35.3311L26.9219 54.8123H33.8461L36.847 40.6811C39.4789 42.366 42.5043 43.4237 45.9726 43.4237C53.3887 43.4237 59.4273 37.3481 59.4273 29.932C59.4273 22.5282 53.3887 16.4896 45.9726 16.4896Z" fill="#6FDA44"/>
<path d="M80.0768 17.2516L84.4429 34.851L89.2517 17.2516H94.9829L87.5913 42.6853H81.8602L77.3219 24.9752L72.796 42.673H67.0648L59.6733 17.2393H65.4045L70.2133 34.8387L74.5793 17.2393H80.0768V17.2516ZM108.696 16.4891C101.255 16.4891 95.2288 22.5278 95.2288 29.9562C95.2288 37.3969 101.267 43.4232 108.696 43.4232C116.137 43.4232 122.175 37.3969 122.175 29.9562C122.175 22.5155 116.137 16.4891 108.696 16.4891ZM108.696 37.8888C104.318 37.8888 100.776 34.3468 100.776 29.9685C100.776 25.5901 104.33 22.0481 108.696 22.0481C113.074 22.0481 116.616 25.5901 116.616 29.9685C116.616 34.3345 113.074 37.8888 108.696 37.8888ZM138.545 22.9459C134.695 22.9459 131.584 26.0698 131.584 29.907V42.673H125.816V17.2516H131.584V21.1626C131.584 21.1626 134.043 17.2393 139.098 17.2393H140.869V22.9459H138.545ZM157.903 28.9723C161.998 26.6601 164.778 22.2695 164.778 17.2393H159.01C159.01 21.4824 155.566 24.926 151.323 24.926H150.548V4.97754H144.78V42.673H150.548V30.6941H151.237C151.803 30.6941 152.541 31.063 152.873 31.5181L161.064 42.673H167.976L157.903 28.9723Z" fill="black"/>
</svg>
