<svg width="24" height="24" viewBox="0 0 24 24" fill="none" xmlns="http://www.w3.org/2000/svg">
<g id="Calendar">
<g id="Vector">
<path d="M16.75 3C16.75 2.58579 16.4142 2.25 16 2.25C15.5858 2.25 15.25 2.58579 15.25 3V4.25H8.75V3C8.75 2.58579 8.41421 2.25 8 2.25C7.58579 2.25 7.25 2.58579 7.25 3V4.25H6C5.27065 4.25 4.57118 4.53973 4.05546 5.05546C3.53973 5.57118 3.25 6.27065 3.25 7V19C3.25 19.7293 3.53973 20.4288 4.05546 20.9445C4.57118 21.4603 5.27065 21.75 6 21.75H10.5C10.9142 21.75 11.25 21.4142 11.25 21C11.25 20.5858 10.9142 20.25 10.5 20.25H6C5.66848 20.25 5.35054 20.1183 5.11612 19.8839C4.8817 19.6495 4.75 19.3315 4.75 19V11.75H14C14.4142 11.75 14.75 11.4142 14.75 11C14.75 10.5858 14.4142 10.25 14 10.25H4.75V7C4.75 6.66848 4.8817 6.35054 5.11612 6.11612C5.35054 5.8817 5.66848 5.75 6 5.75H7.25V7C7.25 7.41421 7.58579 7.75 8 7.75C8.41421 7.75 8.75 7.41421 8.75 7V5.75H15.25V7C15.25 7.41421 15.5858 7.75 16 7.75C16.4142 7.75 16.75 7.41421 16.75 7V5.75H18C18.3315 5.75 18.6495 5.8817 18.8839 6.11612C19.1183 6.35054 19.25 6.66848 19.25 7V10C19.25 10.4142 19.5858 10.75 20 10.75C20.4142 10.75 20.75 10.4142 20.75 10V7C20.75 6.27065 20.4603 5.57118 19.9445 5.05546C19.4288 4.53973 18.7293 4.25 18 4.25H16.75V3Z" fill="#585962"/>
<path d="M18.75 16.5C18.75 16.0858 18.4142 15.75 18 15.75C17.5858 15.75 17.25 16.0858 17.25 16.5V18C17.25 18.1989 17.329 18.3897 17.4697 18.5303L17.9697 19.0303C18.2626 19.3232 18.7374 19.3232 19.0303 19.0303C19.3232 18.7374 19.3232 18.2626 19.0303 17.9697L18.75 17.6893V16.5Z" fill="#585962"/>
<path fill-rule="evenodd" clip-rule="evenodd" d="M14.6412 14.6412C15.532 13.7504 16.7402 13.25 18 13.25C19.2598 13.25 20.468 13.7504 21.3588 14.6412C22.2496 15.532 22.75 16.7402 22.75 18C22.75 19.2598 22.2496 20.468 21.3588 21.3588C20.468 22.2496 19.2598 22.75 18 22.75C16.7402 22.75 15.532 22.2496 14.6412 21.3588C13.7504 20.468 13.25 19.2598 13.25 18C13.25 16.7402 13.7504 15.532 14.6412 14.6412ZM18 14.75C17.138 14.75 16.3114 15.0924 15.7019 15.7019C15.0924 16.3114 14.75 17.138 14.75 18C14.75 18.862 15.0924 19.6886 15.7019 20.2981C16.3114 20.9076 17.138 21.25 18 21.25C18.862 21.25 19.6886 20.9076 20.2981 20.2981C20.9076 19.6886 21.25 18.862 21.25 18C21.25 17.138 20.9076 16.3114 20.2981 15.7019C19.6886 15.0924 18.862 14.75 18 14.75Z" fill="#585962"/>
</g>
</g>
</svg>
