<svg width="24" height="24" viewBox="0 0 24 24" fill="none" xmlns="http://www.w3.org/2000/svg">
<g id="location">
<g id="Vector">
<path fill-rule="evenodd" clip-rule="evenodd" d="M12 7.24995C11.0054 7.24995 10.0516 7.64504 9.34835 8.3483C8.64509 9.05157 8.25 10.0054 8.25 11C8.25 11.9945 8.64509 12.9483 9.34835 13.6516C10.0516 14.3549 11.0054 14.75 12 14.75C12.9946 14.75 13.9484 14.3549 14.6517 13.6516C15.3549 12.9483 15.75 11.9945 15.75 11C15.75 10.0054 15.3549 9.05157 14.6517 8.3483C13.9484 7.64504 12.9946 7.24995 12 7.24995ZM10.409 9.40896C10.831 8.98701 11.4033 8.74995 12 8.74995C12.5967 8.74995 13.169 8.98701 13.591 9.40896C14.0129 9.83092 14.25 10.4032 14.25 11C14.25 11.5967 14.0129 12.169 13.591 12.5909C13.169 13.0129 12.5967 13.25 12 13.25C11.4033 13.25 10.831 13.0129 10.409 12.5909C9.98705 12.169 9.75 11.5967 9.75 11C9.75 10.4032 9.98705 9.83092 10.409 9.40896Z" fill="#585962"/>
<path fill-rule="evenodd" clip-rule="evenodd" d="M12 2.25024C10.2694 2.25024 8.57773 2.76341 7.13881 3.72485C5.69989 4.6863 4.57838 6.05283 3.9161 7.65166C3.25382 9.25049 3.08052 11.0098 3.4181 12.7071C3.75568 14.4044 4.589 15.9635 5.81266 17.1873L10.0567 21.4303C10.5724 21.9455 11.2716 22.235 12.0005 22.235C12.7294 22.235 13.4284 21.9457 13.9441 21.4305L18.1873 17.1873C19.411 15.9636 20.2443 14.4044 20.5819 12.7071C20.9195 11.0098 20.7462 9.25049 20.0839 7.65166C19.4216 6.05283 18.3001 4.6863 16.8612 3.72485C15.4223 2.76341 13.7306 2.25024 12 2.25024ZM7.97216 4.97206C9.16441 4.17544 10.5661 3.75024 12 3.75024C13.4339 3.75024 14.8356 4.17544 16.0278 4.97206C17.2201 5.76869 18.1493 6.90096 18.6981 8.2257C19.2468 9.55045 19.3904 11.0082 19.1107 12.4145C18.831 13.8209 18.1406 15.1127 17.1267 16.1266L12.8839 20.3694C12.6496 20.6035 12.3318 20.735 12.0005 20.735C11.6692 20.735 11.3515 20.6035 11.1171 20.3694L6.87335 16.1266C5.8595 15.1127 5.16899 13.8208 4.88928 12.4145C4.60957 11.0082 4.75317 9.55045 5.30191 8.2257C5.85066 6.90096 6.77991 5.76869 7.97216 4.97206Z" fill="#585962"/>
</g>
</g>
</svg>
