<svg width="80" height="80" viewBox="0 0 80 80" fill="none" xmlns="http://www.w3.org/2000/svg">
<g id="circle-check">
<g id="Vector">
<path d="M51.7678 35.1011C52.7441 34.1248 52.7441 32.5419 51.7678 31.5656C50.7915 30.5893 49.2085 30.5893 48.2322 31.5656L36.6667 43.1311L31.7678 38.2322C30.7915 37.2559 29.2085 37.2559 28.2322 38.2322C27.2559 39.2085 27.2559 40.7915 28.2322 41.7678L34.8989 48.4344C35.8752 49.4107 37.4581 49.4107 38.4344 48.4344L51.7678 35.1011Z" fill="#EA380C"/>
<path fill-rule="evenodd" clip-rule="evenodd" d="M40 7.5C35.732 7.5 31.5059 8.34064 27.5628 9.97392C23.6197 11.6072 20.0369 14.0011 17.019 17.019C14.0011 20.0369 11.6072 23.6197 9.97391 27.5628C8.34064 31.5059 7.5 35.732 7.5 40C7.5 44.268 8.34064 48.4941 9.97391 52.4372C11.6072 56.3803 14.0011 59.9631 17.019 62.981C20.0369 65.9989 23.6197 68.3928 27.5628 70.0261C31.5059 71.6594 35.732 72.5 40 72.5C44.268 72.5 48.4941 71.6594 52.4372 70.0261C56.3803 68.3928 59.9631 65.9989 62.981 62.981C65.9989 59.9631 68.3928 56.3803 70.0261 52.4372C71.6594 48.4941 72.5 44.268 72.5 40C72.5 35.732 71.6594 31.5059 70.0261 27.5628C68.3928 23.6197 65.9989 20.0369 62.981 17.019C59.9631 14.0011 56.3803 11.6072 52.4372 9.97392C48.4941 8.34064 44.268 7.5 40 7.5ZM29.4762 14.5933C32.8127 13.2113 36.3886 12.5 40 12.5C43.6114 12.5 47.1873 13.2113 50.5238 14.5933C53.8602 15.9753 56.8918 18.001 59.4454 20.5546C61.999 23.1082 64.0247 26.1398 65.4067 29.4762C66.7887 32.8127 67.5 36.3886 67.5 40C67.5 43.6114 66.7887 47.1873 65.4067 50.5238C64.0247 53.8602 61.999 56.8918 59.4454 59.4454C56.8918 61.999 53.8602 64.0247 50.5238 65.4067C47.1873 66.7887 43.6114 67.5 40 67.5C36.3886 67.5 32.8127 66.7887 29.4762 65.4067C26.1398 64.0247 23.1082 61.999 20.5546 59.4454C18.001 56.8918 15.9753 53.8602 14.5933 50.5238C13.2113 47.1873 12.5 43.6114 12.5 40C12.5 36.3886 13.2113 32.8127 14.5933 29.4762C15.9753 26.1398 18.001 23.1082 20.5546 20.5546C23.1082 18.001 26.1398 15.9753 29.4762 14.5933Z" fill="#EA380C"/>
</g>
</g>
</svg>
