<svg width="184" height="184" viewBox="0 0 184 184" fill="none" xmlns="http://www.w3.org/2000/svg">
<g id="mail-heart">
<g id="Vector">
<path d="M38.3333 44.0833C35.7917 44.0833 33.3541 45.093 31.5569 46.8902C30.4365 48.0106 29.6222 49.3798 29.1678 50.8679L33.4539 53.7253L17.25 53.7453V53.6667L17.2503 53.5609C17.2781 48.0075 19.4962 42.6875 23.4252 38.7585C27.3791 34.8046 32.7417 32.5833 38.3333 32.5833H145.667C151.258 32.5833 156.621 34.8046 160.575 38.7585C164.504 42.6874 166.722 48.0073 166.75 53.5607L150.763 53.5804L154.832 50.8677C154.378 49.3797 153.563 48.0105 152.443 46.8902C150.646 45.093 148.208 44.0833 145.667 44.0833H38.3333Z" fill="#EA380C"/>
<path d="M150.515 53.7454L166.75 53.7454V84.3333C166.75 87.509 164.176 90.0833 161 90.0833C157.824 90.0833 155.25 87.509 155.25 84.3333V64.4101L95.1899 104.451C93.2584 105.739 90.742 105.739 88.8105 104.451L28.75 64.4106V130.333C28.75 132.875 29.7597 135.313 31.5569 137.11C33.3541 138.907 35.7917 139.917 38.3333 139.917H80.5C83.6756 139.917 86.25 142.491 86.25 145.667C86.25 148.842 83.6756 151.417 80.5 151.417H38.3333C32.7417 151.417 27.3791 149.195 23.4252 145.241C19.4713 141.288 17.25 135.925 17.25 130.333V53.7453L33.4839 53.7453L91.9997 92.7558L150.515 53.7454Z" fill="#EA380C"/>
<path d="M150.515 53.7454L33.4839 53.7453L33.4539 53.7253L150.763 53.5804L150.515 53.7454Z" fill="#EA380C"/>
<path fill-rule="evenodd" clip-rule="evenodd" d="M124.335 109.253C118.358 109.241 112.612 111.564 108.321 115.725C106.195 117.788 104.502 120.256 103.345 122.983C102.188 125.71 101.588 128.641 101.582 131.604C101.577 134.567 102.164 137.501 103.311 140.232C104.457 142.962 106.138 145.434 108.254 147.504L133.97 172.768C136.206 174.964 139.788 174.966 142.025 172.773L167.699 147.605C169.82 145.544 171.507 143.079 172.662 140.357C173.818 137.629 174.417 134.697 174.421 131.735C174.426 128.772 173.837 125.838 172.69 123.107C171.543 120.376 169.86 117.904 167.742 115.834C163.467 111.653 157.728 109.307 151.748 109.295C146.779 109.286 141.971 110.888 138.026 113.819C134.094 110.88 129.298 109.262 124.335 109.253ZM116.328 123.98C118.467 121.905 121.333 120.747 124.313 120.753C127.29 120.759 130.147 121.924 132.278 124.003L133.977 125.679C136.213 127.884 139.804 127.888 142.044 125.688L143.748 124.014C145.887 121.944 148.749 120.789 151.725 120.795C154.707 120.801 157.569 121.971 159.701 124.056C160.722 125.053 161.535 126.246 162.088 127.561C162.64 128.877 162.924 130.289 162.921 131.716C162.919 133.142 162.631 134.554 162.074 135.867C161.517 137.181 160.703 138.369 159.679 139.363L138.004 160.61L116.308 139.295L116.297 139.285C115.277 138.288 114.467 137.097 113.915 135.781C113.363 134.466 113.08 133.053 113.082 131.627C113.085 130.2 113.374 128.788 113.931 127.475C114.488 126.162 115.303 124.974 116.328 123.98Z" fill="#EA380C"/>
</g>
</g>
</svg>
