<svg width="184" height="184" viewBox="0 0 184 184" fill="none" xmlns="http://www.w3.org/2000/svg">
<g id="confetti">
<g id="Vector">
<path d="M89.5612 25.0884C92.642 25.8586 94.5151 28.9804 93.7449 32.0613L89.9116 47.3946C89.1414 50.4754 86.0195 52.3485 82.9387 51.5783C79.8578 50.8081 77.9847 47.6862 78.7549 44.6054L82.5883 29.2721C83.3585 26.1913 86.4803 24.3181 89.5612 25.0884Z" fill="#EA380C"/>
<path d="M44.0832 30.6667C44.0832 27.491 41.5089 24.9167 38.3332 24.9167C35.1576 24.9167 32.5832 27.491 32.5832 30.6667V32.5833H30.6666C27.4909 32.5833 24.9166 35.1577 24.9166 38.3333C24.9166 41.509 27.4909 44.0833 30.6666 44.0833H32.5832V46C32.5832 49.1756 35.1576 51.75 38.3332 51.75C41.5089 51.75 44.0832 49.1756 44.0832 46V44.0833H45.9999C49.1755 44.0833 51.7499 41.509 51.7499 38.3333C51.7499 35.1577 49.1755 32.5833 45.9999 32.5833H44.0832V30.6667Z" fill="#EA380C"/>
<path d="M138 32.5833C134.824 32.5833 132.25 35.1577 132.25 38.3333C132.25 41.509 134.824 44.0833 138 44.0833H139.917V46C139.917 49.1756 142.491 51.75 145.667 51.75C148.842 51.75 151.417 49.1756 151.417 46V44.0833H153.333C156.509 44.0833 159.083 41.509 159.083 38.3333C159.083 35.1577 156.509 32.5833 153.333 32.5833H151.417V30.6667C151.417 27.491 148.842 24.9167 145.667 24.9167C142.491 24.9167 139.917 27.491 139.917 30.6667V32.5833H138Z" fill="#EA380C"/>
<path d="M119.066 73.0659C121.311 70.8204 121.311 67.1797 119.066 64.9341C116.82 62.6886 113.18 62.6886 110.934 64.9341L103.267 72.6008C101.022 74.8463 101.022 78.487 103.267 80.7325C105.513 82.9781 109.154 82.9781 111.399 80.7325L119.066 73.0659Z" fill="#EA380C"/>
<path d="M158.912 94.4388C159.682 97.5196 157.809 100.641 154.728 101.412L139.394 105.245C136.314 106.015 133.192 104.142 132.422 101.061C131.651 97.9804 133.525 94.8586 136.605 94.0884L151.939 90.255C155.019 89.4848 158.141 91.3579 158.912 94.4388Z" fill="#EA380C"/>
<path d="M138 139.917C134.824 139.917 132.25 142.491 132.25 145.667C132.25 148.842 134.824 151.417 138 151.417H139.917V153.333C139.917 156.509 142.491 159.083 145.667 159.083C148.842 159.083 151.417 156.509 151.417 153.333V151.417H153.333C156.509 151.417 159.083 148.842 159.083 145.667C159.083 142.491 156.509 139.917 153.333 139.917H151.417V138C151.417 134.824 148.842 132.25 145.667 132.25C142.491 132.25 139.917 134.824 139.917 138V139.917H138Z" fill="#EA380C"/>
<path fill-rule="evenodd" clip-rule="evenodd" d="M61.4277 72.6008C60.0964 71.2695 58.1976 70.6743 56.3445 71.0074C54.4915 71.3405 52.9189 72.5597 52.1345 74.2713L18.485 147.702C17.3281 150.193 16.9633 152.979 17.44 155.683C17.918 158.395 19.2188 160.894 21.166 162.841C23.1132 164.789 25.6123 166.09 28.3242 166.567C31.0291 167.044 33.815 166.679 36.3056 165.522L109.729 131.865C111.441 131.08 112.66 129.508 112.993 127.655C113.325 125.802 112.73 123.903 111.399 122.572L61.4277 72.6008ZM28.9324 152.509L59.1438 86.5804L97.4202 124.857L31.4981 155.075L31.4633 155.091C31.1068 155.258 30.7078 155.31 30.3203 155.242C29.9329 155.174 29.5759 154.988 29.2977 154.71C29.0195 154.432 28.8337 154.075 28.7654 153.687C28.6972 153.3 28.7497 152.901 28.916 152.544L28.9324 152.509Z" fill="#EA380C"/>
</g>
</g>
</svg>
