<svg width="25" height="24" viewBox="0 0 25 24" fill="none" xmlns="http://www.w3.org/2000/svg">
<g id="brand-skype">
<g id="Vector">
<path d="M9.24994 9.49991C9.24994 9.07459 9.41577 8.67954 9.85025 8.36513C10.3123 8.03079 11.1354 7.74991 12.4999 7.74991C13.2584 7.74991 14.0006 7.86753 14.5863 8.16746C15.1434 8.45278 15.5794 8.91012 15.7723 9.68181C15.8728 10.0837 16.28 10.328 16.6818 10.2275C17.0837 10.1271 17.328 9.71985 17.2275 9.31801C16.9205 8.0897 16.1774 7.29704 15.2701 6.83236C14.3912 6.38229 13.3835 6.24991 12.4999 6.24991C10.9595 6.24991 9.78261 6.56253 8.97088 7.14994C8.1316 7.75728 7.74994 8.61223 7.74994 9.49991C7.74994 10.612 8.46975 11.4436 9.3412 11.9582C10.2176 12.4757 11.3546 12.7499 12.4999 12.7499C13.428 12.7499 14.291 12.9752 14.8962 13.3322C15.5059 13.692 15.7499 14.1102 15.7499 14.4999C15.7499 14.9252 15.5841 15.3203 15.1496 15.6347C14.6876 15.969 13.8645 16.2499 12.4999 16.2499C11.7415 16.2499 10.9992 16.1323 10.4136 15.8324C9.85643 15.547 9.42047 15.0897 9.22755 14.318C9.12708 13.9162 8.71988 13.6718 8.31804 13.7723C7.91619 13.8728 7.67187 14.28 7.77233 14.6818C8.07941 15.9101 8.82245 16.7028 9.72982 17.1675C10.6086 17.6175 11.6164 17.7499 12.4999 17.7499C14.0404 17.7499 15.2173 17.4373 16.029 16.8499C16.8683 16.2425 17.2499 15.3876 17.2499 14.4999C17.2499 13.3866 16.5305 12.5548 15.6584 12.0403C14.7818 11.5231 13.6448 11.2499 12.4999 11.2499C11.5723 11.2499 10.7093 11.0241 10.1039 10.6666C9.49362 10.3062 9.24994 9.8878 9.24994 9.49991Z" fill="#424348"/>
<path fill-rule="evenodd" clip-rule="evenodd" d="M7.05456 2.3325C8.00975 2.15805 8.99267 2.25222 9.89461 2.60171C10.7429 2.36728 11.6194 2.24882 12.5003 2.24991C14.0264 2.24966 15.5312 2.60763 16.8937 3.29502C18.2563 3.98249 19.4385 4.98026 20.3452 6.20802C21.2518 7.43579 21.8576 8.85925 22.1137 10.3638C22.3543 11.7776 22.2799 13.2259 21.8973 14.6057C22.2465 15.5074 22.3405 16.49 22.1661 17.4449C21.9744 18.4939 21.4679 19.4597 20.7138 20.2138C19.9598 20.9679 18.9939 21.4744 17.9449 21.666C16.9901 21.8404 16.0075 21.7464 15.1058 21.3973C13.489 21.8463 11.7819 21.8708 10.1502 21.4661C8.42894 21.0392 6.85674 20.151 5.60278 18.8971C4.34882 17.6431 3.46061 16.0709 3.03374 14.3497C2.62909 12.718 2.65356 11.011 3.10252 9.39414C2.75307 8.49243 2.65881 7.50973 2.83306 6.55471C3.02451 5.50543 3.53102 4.53935 4.28517 3.78507C5.03931 3.0308 6.00531 2.52413 7.05456 2.3325ZM7.32406 3.80809C8.07352 3.67121 8.84691 3.76586 9.54125 4.07944C9.7076 4.15456 9.89563 4.16645 10.0701 4.11286C10.857 3.87119 11.6758 3.74884 12.499 3.74991L12.5001 3.74991C13.7915 3.74962 15.065 4.05252 16.218 4.63423C17.371 5.21594 18.3714 6.06021 19.1385 7.09908C19.9057 8.13796 20.4182 9.34243 20.6349 10.6156C20.8516 11.8887 20.7664 13.1949 20.3862 14.4291C20.3324 14.6037 20.3442 14.792 20.4194 14.9585C20.7328 15.6528 20.8274 16.426 20.6905 17.1753C20.5536 17.9246 20.1918 18.6145 19.6532 19.1531C19.1145 19.6918 18.4247 20.0536 17.6753 20.1905C16.926 20.3273 16.1528 20.2328 15.4585 19.9193C15.2919 19.8441 15.1036 19.8323 14.9289 19.8862C13.495 20.3285 11.9676 20.3714 10.5112 20.0102C9.05481 19.649 7.72448 18.8974 6.66344 17.8364C5.6024 16.7754 4.85083 15.445 4.48964 13.9886C4.12845 12.5322 4.17131 11.0049 4.61361 9.57098C4.66752 9.39622 4.65572 9.20777 4.58041 9.0411C4.26672 8.34682 4.17194 7.57345 4.3087 6.82396C4.44545 6.07447 4.80724 5.38441 5.34592 4.84565C5.88459 4.30688 6.57459 3.94497 7.32406 3.80809Z" fill="#424348"/>
</g>
</g>
</svg>
