<svg width="25" height="24" viewBox="0 0 25 24" fill="none" xmlns="http://www.w3.org/2000/svg">
<g id="brand-fiverr">
<path id="Vector" fill-rule="evenodd" clip-rule="evenodd" d="M8.72703 4.22703C9.9929 2.96116 11.7098 2.25 13.5 2.25H15.5C15.9142 2.25 16.25 2.58579 16.25 3V7C16.25 7.41421 15.9142 7.75 15.5 7.75H13.4874C13.3259 7.74729 13.1654 7.77666 13.0154 7.83661C12.8654 7.89655 12.7288 7.98577 12.6136 8.09905C12.4985 8.21233 12.407 8.3474 12.3446 8.4964C12.2821 8.6454 12.25 8.80534 12.25 8.96689V9.25H19.5C19.9142 9.25 20.25 9.58579 20.25 10V21C20.25 21.4142 19.9142 21.75 19.5 21.75H15.5C15.0858 21.75 14.75 21.4142 14.75 21V14.75H12.25V21C12.25 21.4142 11.9142 21.75 11.5 21.75H7.5C7.08579 21.75 6.75 21.4142 6.75 21V13.75H4.5C4.08579 13.75 3.75 13.4142 3.75 13V9C3.75 8.58579 4.08579 8.25 4.5 8.25H6.79177C6.96103 6.73574 7.63921 5.31485 8.72703 4.22703ZM13.5 3.75C12.1076 3.75 10.7723 4.30312 9.78769 5.28769C8.80312 6.27226 8.25 7.60761 8.25 9C8.25 9.41421 7.91421 9.75 7.5 9.75H5.25V12.25H7.5C7.91421 12.25 8.25 12.5858 8.25 13V20.25H10.75V14C10.75 13.5858 11.0858 13.25 11.5 13.25H15.5C15.9142 13.25 16.25 13.5858 16.25 14V20.25H18.75V10.75H11.5C11.0858 10.75 10.75 10.4142 10.75 10V8.96711C10.75 8.96707 10.75 8.96714 10.75 8.96711C10.75 8.60647 10.8217 8.24933 10.9611 7.91672C11.1005 7.58407 11.3047 7.2825 11.5618 7.0296C11.819 6.7767 12.1239 6.57752 12.4588 6.44369C12.7916 6.3107 13.1475 6.24488 13.5058 6.25H14.75V3.75H13.5Z" fill="#424348"/>
</g>
</svg>
