<svg width="21" height="20" viewBox="0 0 21 20" fill="none" xmlns="http://www.w3.org/2000/svg">
<g id="brand-behance">
<g id="Vector">
<path fill-rule="evenodd" clip-rule="evenodd" d="M3 4.375C2.65482 4.375 2.375 4.65482 2.375 5V15C2.375 15.3452 2.65482 15.625 3 15.625H6.75C7.5788 15.625 8.37366 15.2958 8.95971 14.7097C9.54576 14.1237 9.875 13.3288 9.875 12.5C9.875 11.6712 9.54576 10.8763 8.95971 10.2903C8.85453 10.1851 8.74264 10.0882 8.62502 10C8.74264 9.91179 8.85453 9.81488 8.95971 9.70971C9.54576 9.12366 9.875 8.3288 9.875 7.5C9.875 6.6712 9.54576 5.87634 8.95971 5.29029C8.37366 4.70424 7.5788 4.375 6.75 4.375H3ZM3.625 10.625V14.375H6.75C7.24728 14.375 7.7242 14.1775 8.07583 13.8258C8.42746 13.4742 8.625 12.9973 8.625 12.5C8.625 12.0027 8.42746 11.5258 8.07583 11.1742C7.7242 10.8225 7.24728 10.625 6.75 10.625H3.625ZM6.75 9.375H3.625V5.625H6.75C7.24728 5.625 7.7242 5.82254 8.07583 6.17417C8.42746 6.52581 8.625 7.00272 8.625 7.5C8.625 7.99728 8.42746 8.4742 8.07583 8.82583C7.7242 9.17746 7.24728 9.375 6.75 9.375Z" fill="#424348"/>
<path fill-rule="evenodd" clip-rule="evenodd" d="M12.579 8.329C13.2432 7.66481 14.144 7.29167 15.0833 7.29167C16.0226 7.29167 16.9235 7.66481 17.5877 8.329C18.2519 8.99319 18.625 9.89403 18.625 10.8333C18.625 11.1785 18.3452 11.4583 18 11.4583H12.7917V12.4546C12.8656 12.9295 13.0872 13.3696 13.4254 13.7121C13.7731 14.0642 14.2254 14.2943 14.7148 14.368C15.2041 14.4417 15.7041 14.355 16.1401 14.121C16.576 13.8869 16.9245 13.518 17.1334 13.0695C17.2792 12.7566 17.651 12.621 17.9639 12.7668C18.2768 12.9125 18.4123 13.2843 18.2666 13.5972C17.9437 14.2904 17.4051 14.8605 16.7313 15.2223C16.0576 15.584 15.2848 15.718 14.5286 15.6041C13.7724 15.4902 13.0734 15.1346 12.536 14.5905C11.9987 14.0463 11.6519 13.3429 11.5475 12.5853C11.5436 12.557 11.5417 12.5285 11.5417 12.5V10.8333C11.5417 9.89402 11.9148 8.99319 12.579 8.329ZM17.2881 10.2083C17.1824 9.83537 16.9828 9.49187 16.7038 9.21288C16.274 8.78311 15.6911 8.54167 15.0833 8.54167C14.4755 8.54167 13.8927 8.78311 13.4629 9.21288C13.1839 9.49187 12.9843 9.83537 12.8785 10.2083H17.2881Z" fill="#424348"/>
<path d="M13.8333 4.375C13.4882 4.375 13.2083 4.65482 13.2083 5C13.2083 5.34518 13.4882 5.625 13.8333 5.625H16.3333C16.6785 5.625 16.9583 5.34518 16.9583 5C16.9583 4.65482 16.6785 4.375 16.3333 4.375H13.8333Z" fill="#424348"/>
</g>
</g>
</svg>
