<svg width="21" height="20" viewBox="0 0 21 20" fill="none" xmlns="http://www.w3.org/2000/svg">
<g id="brand-dribbble">
<path id="Vector" fill-rule="evenodd" clip-rule="evenodd" d="M10.5 1.875C9.43301 1.875 8.37647 2.08516 7.3907 2.49348C6.40493 2.9018 5.50923 3.50028 4.75476 4.25476C4.00028 5.00923 3.4018 5.90493 2.99348 6.8907C2.58516 7.87647 2.375 8.93301 2.375 10C2.375 11.067 2.58516 12.1235 2.99348 13.1093C3.4018 14.0951 4.00028 14.9908 4.75476 15.7452C5.50923 16.4997 6.40493 17.0982 7.3907 17.5065C8.37647 17.9148 9.43301 18.125 10.5 18.125C11.567 18.125 12.6235 17.9148 13.6093 17.5065C13.9132 17.3806 14.2085 17.2367 14.4938 17.0757C14.5412 17.0556 14.5854 17.03 14.6257 16.9996C15.215 16.6523 15.7594 16.2311 16.2452 15.7452C16.9997 14.9908 17.5982 14.0951 18.0065 13.1093C18.4148 12.1235 18.625 11.067 18.625 10C18.625 8.93301 18.4148 7.87647 18.0065 6.8907C17.5982 5.90493 16.9997 5.00923 16.2452 4.25476C15.4908 3.50028 14.5951 2.9018 13.6093 2.49348C12.6235 2.08516 11.567 1.875 10.5 1.875ZM14.7584 15.3973C14.9693 15.231 15.1707 15.0521 15.3614 14.8614C15.9998 14.223 16.5062 13.4651 16.8517 12.6309C17.0527 12.1457 17.1969 11.6403 17.2824 11.1246C15.9528 11.139 14.8234 11.2524 13.8447 11.4447C14.2833 12.7251 14.5785 14.0248 14.7584 15.3973ZM13.3957 10.2606C14.5345 10.0201 15.8409 9.88459 17.3738 9.87369C17.358 9.01387 17.1811 8.16425 16.8517 7.36905C16.5911 6.73989 16.2389 6.15409 15.8076 5.63022C14.5847 6.60689 13.3982 7.34393 12.2376 7.89967C12.6857 8.69389 13.0695 9.47671 13.3957 10.2606ZM11.5944 6.82133C12.6765 6.31333 13.781 5.63676 14.9229 4.73656C14.3856 4.28509 13.7815 3.91778 13.1309 3.64833C12.2968 3.30283 11.4028 3.125 10.5 3.125C10.0077 3.125 9.51807 3.17787 9.03932 3.28196C10.0359 4.51851 10.8815 5.68674 11.5944 6.82133ZM10.4246 7.31029C8.20019 8.12867 6.04827 8.30248 3.83111 8.32919C3.91296 8.00253 4.01887 7.68159 4.14833 7.36905C4.49383 6.53494 5.00024 5.77704 5.63864 5.13864C6.24978 4.5275 6.97042 4.03732 7.76261 3.69347C8.81257 4.97144 9.69202 6.16354 10.4246 7.31029ZM3.63777 9.58119C6.08466 9.56105 8.52783 9.38304 11.0833 8.39794C11.5042 9.13455 11.8651 9.85719 12.1727 10.5773C11.3717 10.8262 10.6603 11.1352 10.0101 11.4947C8.34243 12.4168 7.11087 13.6587 5.84551 14.9347L5.78106 14.9997C5.73295 14.9543 5.68547 14.9082 5.63864 14.8614C5.00024 14.223 4.49383 13.4651 4.14833 12.6309C3.80283 11.7968 3.625 10.9028 3.625 10C3.625 9.86012 3.62927 9.72046 3.63777 9.58119ZM7.86905 16.3517C7.48582 16.1929 7.11868 16.0002 6.77183 15.7764C8.03474 14.5049 9.13028 13.4095 10.6149 12.5886C11.2064 12.2616 11.8652 11.9759 12.6262 11.7458C13.123 13.1676 13.4263 14.6039 13.5877 16.1426C13.4383 16.2177 13.2859 16.2875 13.1309 16.3517C12.2968 16.6972 11.4028 16.875 10.5 16.875C9.59716 16.875 8.70316 16.6972 7.86905 16.3517Z" fill="#424348"/>
</g>
</svg>
