<svg width="21" height="20" viewBox="0 0 21 20" fill="none" xmlns="http://www.w3.org/2000/svg">
<g id="facebook">
<path id="Vector" fill-rule="evenodd" clip-rule="evenodd" d="M13.0002 1.875C11.7293 1.875 10.5106 2.37983 9.61194 3.27845C8.71333 4.17706 8.2085 5.39584 8.2085 6.66667V7.70833H6.3335C5.98832 7.70833 5.7085 7.98816 5.7085 8.33333V11.6667C5.7085 12.0118 5.98832 12.2917 6.3335 12.2917H8.2085V17.5C8.2085 17.8452 8.48832 18.125 8.8335 18.125H12.1668C12.512 18.125 12.7918 17.8452 12.7918 17.5V12.2917H14.6668C14.9536 12.2917 15.2036 12.0965 15.2732 11.8183L16.1065 8.48492C16.1532 8.2982 16.1112 8.1004 15.9928 7.9487C15.8743 7.797 15.6926 7.70833 15.5002 7.70833H12.7918V6.66667C12.7918 6.61141 12.8138 6.55842 12.8528 6.51935C12.8919 6.48028 12.9449 6.45833 13.0002 6.45833H15.5002C15.8453 6.45833 16.1252 6.17851 16.1252 5.83333V2.5C16.1252 2.15482 15.8453 1.875 15.5002 1.875H13.0002ZM10.4958 4.16233C11.16 3.49814 12.0609 3.125 13.0002 3.125H14.8752V5.20833H13.0002C12.6134 5.20833 12.2425 5.36198 11.969 5.63547C11.6955 5.90896 11.5418 6.27989 11.5418 6.66667V8.33333C11.5418 8.67851 11.8217 8.95833 12.1668 8.95833H14.6997L14.1788 11.0417H12.1668C11.8217 11.0417 11.5418 11.3215 11.5418 11.6667V16.875H9.4585V11.6667C9.4585 11.3215 9.17867 11.0417 8.8335 11.0417H6.9585V8.95833H8.8335C9.17867 8.95833 9.4585 8.67851 9.4585 8.33333V6.66667C9.4585 5.72736 9.83163 4.82652 10.4958 4.16233Z" fill="#424348"/>
</g>
</svg>
