<svg width="21" height="20" viewBox="0 0 21 20" fill="none" xmlns="http://www.w3.org/2000/svg">
<g id="Instagram">
<g id="Vector">
<path fill-rule="evenodd" clip-rule="evenodd" d="M8.26652 7.76652C8.85883 7.17422 9.66216 6.84147 10.4998 6.84147C11.3374 6.84147 12.1408 7.17422 12.7331 7.76652C13.3254 8.35883 13.6581 9.16216 13.6581 9.9998C13.6581 10.8374 13.3254 11.6408 12.7331 12.2331C12.1408 12.8254 11.3374 13.1581 10.4998 13.1581C9.66216 13.1581 8.85883 12.8254 8.26652 12.2331C7.67422 11.6408 7.34147 10.8374 7.34147 9.9998C7.34147 9.16216 7.67422 8.35883 8.26652 7.76652ZM10.4998 8.15814C10.0114 8.15814 9.54293 8.35217 9.19755 8.69755C8.85217 9.04293 8.65814 9.51136 8.65814 9.9998C8.65814 10.4882 8.85217 10.9567 9.19755 11.3021C9.54293 11.6474 10.0114 11.8415 10.4998 11.8415C10.9882 11.8415 11.4567 11.6474 11.8021 11.3021C12.1474 10.9567 12.3415 10.4882 12.3415 9.9998C12.3415 9.51136 12.1474 9.04293 11.8021 8.69755C11.4567 8.35217 10.9882 8.15814 10.4998 8.15814Z" fill="#424348"/>
<path d="M14.9081 6.2498C14.9081 5.88622 14.6134 5.59147 14.2498 5.59147C13.8862 5.59147 13.5915 5.88622 13.5915 6.2498V6.25814C13.5915 6.62173 13.8862 6.91647 14.2498 6.91647C14.6134 6.91647 14.9081 6.62173 14.9081 6.25814V6.2498Z" fill="#424348"/>
<path fill-rule="evenodd" clip-rule="evenodd" d="M4.34394 3.84394C5.09252 3.09535 6.10782 2.6748 7.16647 2.6748H13.8331C14.8918 2.6748 15.9071 3.09535 16.6557 3.84394C17.4043 4.59252 17.8248 5.60781 17.8248 6.66647V13.3331C17.8248 14.3918 17.4043 15.4071 16.6557 16.1557C15.9071 16.9043 14.8918 17.3248 13.8331 17.3248H7.16647C6.10781 17.3248 5.09252 16.9043 4.34394 16.1557C3.59535 15.4071 3.1748 14.3918 3.1748 13.3331V6.66647C3.1748 5.60782 3.59535 4.59252 4.34394 3.84394ZM7.16647 3.99147C6.45702 3.99147 5.77662 4.2733 5.27496 4.77496C4.7733 5.27662 4.49147 5.95702 4.49147 6.66647V13.3331C4.49147 14.0426 4.7733 14.723 5.27496 15.2246C5.77662 15.7263 6.45702 16.0081 7.16647 16.0081H13.8331C14.5426 16.0081 15.223 15.7263 15.7246 15.2246C16.2263 14.723 16.5081 14.0426 16.5081 13.3331V6.66647C16.5081 5.95702 16.2263 5.27662 15.7246 4.77496C15.223 4.2733 14.5426 3.99147 13.8331 3.99147H7.16647Z" fill="#424348"/>
</g>
</g>
</svg>
