<svg width="20" height="20" viewBox="0 0 20 20" fill="none" xmlns="http://www.w3.org/2000/svg">
<g id="Linkedin">
<g id="Vector">
<path d="M6.66667 6.04167C7.01184 6.04167 7.29167 6.32149 7.29167 6.66667V6.675C7.29167 7.02018 7.01184 7.3 6.66667 7.3C6.32149 7.3 6.04167 7.02018 6.04167 6.675V6.66667C6.04167 6.32149 6.32149 6.04167 6.66667 6.04167Z" fill="#424348"/>
<path d="M6.66667 8.54167C7.01184 8.54167 7.29167 8.82149 7.29167 9.16667V13.3333C7.29167 13.6785 7.01184 13.9583 6.66667 13.9583C6.32149 13.9583 6.04167 13.6785 6.04167 13.3333V9.16667C6.04167 8.82149 6.32149 8.54167 6.66667 8.54167Z" fill="#424348"/>
<path d="M10 8.54167C10.226 8.54167 10.424 8.6616 10.5337 8.8413C10.8761 8.64662 11.266 8.54167 11.6667 8.54167C12.2745 8.54167 12.8573 8.78311 13.2871 9.21288C13.7169 9.64265 13.9583 10.2255 13.9583 10.8333V13.3333C13.9583 13.6785 13.6785 13.9583 13.3333 13.9583C12.9882 13.9583 12.7083 13.6785 12.7083 13.3333V10.8333C12.7083 10.5571 12.5986 10.2921 12.4032 10.0968C12.2079 9.90141 11.9429 9.79167 11.6667 9.79167C11.3904 9.79167 11.1254 9.90141 10.9301 10.0968C10.7347 10.2921 10.625 10.5571 10.625 10.8333V13.3333C10.625 13.6785 10.3452 13.9583 10 13.9583C9.65482 13.9583 9.375 13.6785 9.375 13.3333V9.16667C9.375 8.82149 9.65482 8.54167 10 8.54167Z" fill="#424348"/>
<path fill-rule="evenodd" clip-rule="evenodd" d="M5.83333 1.875C4.78352 1.875 3.7767 2.29204 3.03437 3.03437C2.29204 3.7767 1.875 4.78352 1.875 5.83333V14.1667C1.875 15.2165 2.29204 16.2233 3.03437 16.9656C3.7767 17.708 4.78352 18.125 5.83333 18.125H14.1667C15.2165 18.125 16.2233 17.708 16.9656 16.9656C17.708 16.2233 18.125 15.2165 18.125 14.1667V5.83333C18.125 4.78352 17.708 3.7767 16.9656 3.03437C16.2233 2.29204 15.2165 1.875 14.1667 1.875H5.83333ZM3.91825 3.91825C4.42616 3.41034 5.11504 3.125 5.83333 3.125H14.1667C14.885 3.125 15.5738 3.41034 16.0817 3.91825C16.5897 4.42616 16.875 5.11504 16.875 5.83333V14.1667C16.875 14.885 16.5897 15.5738 16.0817 16.0817C15.5738 16.5897 14.885 16.875 14.1667 16.875H5.83333C5.11504 16.875 4.42616 16.5897 3.91825 16.0817C3.41034 15.5738 3.125 14.885 3.125 14.1667V5.83333C3.125 5.11504 3.41034 4.42616 3.91825 3.91825Z" fill="#424348"/>
</g>
</g>
</svg>
