<svg width="20" height="20" viewBox="0 0 20 20" fill="none" xmlns="http://www.w3.org/2000/svg">
<g id="Twitter X">
<path id="Vector" fill-rule="evenodd" clip-rule="evenodd" d="M3.3335 2.7085C3.09798 2.7085 2.88246 2.8409 2.77599 3.05098C2.66953 3.26107 2.69021 3.51316 2.82949 3.70309L8.15335 10.9631L2.89156 16.2249C2.64748 16.469 2.64748 16.8647 2.89156 17.1088C3.13564 17.3528 3.53136 17.3528 3.77544 17.1088L8.90123 11.983L12.607 17.0364C12.7247 17.197 12.9119 17.2918 13.111 17.2918H16.6668C16.9024 17.2918 17.1179 17.1594 17.2243 16.9493C17.3308 16.7393 17.3101 16.4872 17.1708 16.2972L11.847 9.03723L17.1088 3.77544C17.3529 3.53136 17.3529 3.13563 17.1088 2.89155C16.8647 2.64748 16.469 2.64748 16.2249 2.89155L11.0991 8.01735L7.39334 2.9639C7.27561 2.80335 7.08842 2.7085 6.88933 2.7085H3.3335ZM10.4831 9.2911L6.57262 3.9585H4.56686L13.4277 16.0418H15.4335L10.5605 9.3967C10.5305 9.36371 10.5047 9.32828 10.4831 9.2911Z" fill="#424348"/>
</g>
</svg>
